<svg width="960" height="720" viewBox="0 0 960 720" fill="none" xmlns="http://www.w3.org/2000/svg">
  <rect width="960" height="720" rx="36" fill="#FAFAFA"/>
  <rect x="40" y="40" width="880" height="640" rx="28" fill="white" stroke="#E4E4E7" stroke-width="2"/>
  <rect x="82" y="88" width="232" height="88" rx="20" fill="#ECFDF5"/>
  <rect x="112" y="118" width="104" height="14" rx="7" fill="#047857"/>
  <rect x="112" y="145" width="144" height="10" rx="5" fill="#6EE7B7"/>
  <rect x="342" y="88" width="232" height="88" rx="20" fill="#FAFAFA" stroke="#E4E4E7" stroke-width="2"/>
  <rect x="372" y="118" width="112" height="14" rx="7" fill="#27272A"/>
  <rect x="372" y="145" width="140" height="10" rx="5" fill="#A1A1AA"/>
  <rect x="602" y="88" width="276" height="88" rx="20" fill="#FAFAFA" stroke="#E4E4E7" stroke-width="2"/>
  <rect x="632" y="118" width="124" height="14" rx="7" fill="#27272A"/>
  <rect x="632" y="145" width="176" height="10" rx="5" fill="#A1A1AA"/>
  <rect x="82" y="214" width="530" height="412" rx="24" fill="#FAFAFA" stroke="#E4E4E7" stroke-width="2"/>
  <path d="M132 516L224 456L316 486L430 380L554 324" stroke="#10B981" stroke-width="16" stroke-linecap="round" stroke-linejoin="round"/>
  <rect x="644" y="214" width="234" height="190" rx="24" fill="#FAFAFA" stroke="#E4E4E7" stroke-width="2"/>
  <rect x="692" y="268" width="138" height="14" rx="7" fill="#27272A"/>
  <rect x="692" y="302" width="110" height="10" rx="5" fill="#D4D4D8"/>
  <rect x="692" y="332" width="88" height="10" rx="5" fill="#D4D4D8"/>
  <rect x="644" y="436" width="234" height="190" rx="24" fill="#FAFAFA" stroke="#E4E4E7" stroke-width="2"/>
  <rect x="694" y="498" width="34" height="76" rx="10" fill="#E4E4E7"/>
  <rect x="742" y="468" width="34" height="106" rx="10" fill="#A7F3D0"/>
  <rect x="790" y="430" width="34" height="144" rx="10" fill="#34D399"/>
</svg>
