<svg width="1400" height="900" viewBox="0 0 1400 900" fill="none" xmlns="http://www.w3.org/2000/svg">
  <rect width="1400" height="900" rx="44" fill="#F5F5F4"/>
  <rect x="54" y="54" width="1292" height="792" rx="34" fill="white" stroke="#E4E4E7" stroke-width="2"/>
  <rect x="106" y="118" width="384" height="110" rx="24" fill="#FAFAFA" stroke="#E4E4E7" stroke-width="2"/>
  <rect x="136" y="152" width="168" height="18" rx="9" fill="#27272A"/>
  <rect x="136" y="184" width="214" height="12" rx="6" fill="#A1A1AA"/>
  <rect x="524" y="118" width="290" height="110" rx="24" fill="#ECFDF5"/>
  <rect x="554" y="152" width="114" height="18" rx="9" fill="#047857"/>
  <rect x="554" y="184" width="206" height="12" rx="6" fill="#6EE7B7"/>
  <rect x="848" y="118" width="446" height="110" rx="24" fill="#FAFAFA" stroke="#E4E4E7" stroke-width="2"/>
  <rect x="878" y="152" width="182" height="18" rx="9" fill="#27272A"/>
  <rect x="878" y="184" width="262" height="12" rx="6" fill="#A1A1AA"/>
  <rect x="106" y="270" width="788" height="468" rx="30" fill="#FAFAFA" stroke="#E4E4E7" stroke-width="2"/>
  <path d="M164 618L286 505L399 544L544 403L675 462L836 334" stroke="#10B981" stroke-width="18" stroke-linecap="round" stroke-linejoin="round"/>
  <circle cx="286" cy="505" r="18" fill="#10B981"/>
  <circle cx="544" cy="403" r="18" fill="#10B981"/>
  <circle cx="836" cy="334" r="18" fill="#10B981"/>
  <rect x="956" y="270" width="338" height="216" rx="30" fill="#FAFAFA" stroke="#E4E4E7" stroke-width="2"/>
  <path d="M1020 420L1116 348L1192 378L1230 318" stroke="#27272A" stroke-width="14" stroke-linecap="round" stroke-linejoin="round"/>
  <rect x="956" y="522" width="338" height="216" rx="30" fill="#FAFAFA" stroke="#E4E4E7" stroke-width="2"/>
  <rect x="1018" y="598" width="42" height="78" rx="14" fill="#D4D4D8"/>
  <rect x="1080" y="560" width="42" height="116" rx="14" fill="#A7F3D0"/>
  <rect x="1142" y="516" width="42" height="160" rx="14" fill="#34D399"/>
  <rect x="1204" y="470" width="42" height="206" rx="14" fill="#047857"/>
</svg>
